<mxfile host="app.diagrams.net" modified="2023-11-21T18:15:09.170Z" agent="Mozilla/5.0 (Windows NT 10.0; Win64; x64; rv:120.0) Gecko/20100101 Firefox/120.0" etag="Kvf5lPcrgwLUKi4W1Zho" version="22.1.3" type="device">
  <diagram name="Page-1" id="0HGCsZM5In3sNKEKSl5m">
    <mxGraphModel dx="2759" dy="964" grid="1" gridSize="10" guides="1" tooltips="1" connect="1" arrows="1" fold="1" page="1" pageScale="1" pageWidth="850" pageHeight="1100" math="0" shadow="0">
      <root>
        <mxCell id="0" />
        <mxCell id="1" parent="0" />
        <mxCell id="_TASKCNDh54R84NgH-Fq-1" value="" style="ellipse;html=1;shape=startState;fillColor=#000000;strokeColor=#ff0000;" parent="1" vertex="1">
          <mxGeometry x="390" y="30" width="30" height="30" as="geometry" />
        </mxCell>
        <mxCell id="_TASKCNDh54R84NgH-Fq-2" value="" style="edgeStyle=orthogonalEdgeStyle;html=1;verticalAlign=bottom;endArrow=open;endSize=8;strokeColor=#ff0000;rounded=0;" parent="1" source="_TASKCNDh54R84NgH-Fq-1" edge="1">
          <mxGeometry relative="1" as="geometry">
            <mxPoint x="405" y="120" as="targetPoint" />
          </mxGeometry>
        </mxCell>
        <mxCell id="_TASKCNDh54R84NgH-Fq-3" value="Guest joins website" style="text;html=1;align=center;verticalAlign=middle;resizable=0;points=[];autosize=1;strokeColor=none;fillColor=none;" parent="1" vertex="1">
          <mxGeometry x="400" y="68" width="130" height="30" as="geometry" />
        </mxCell>
        <mxCell id="_TASKCNDh54R84NgH-Fq-11" style="edgeStyle=orthogonalEdgeStyle;rounded=0;orthogonalLoop=1;jettySize=auto;html=1;" parent="1" source="_TASKCNDh54R84NgH-Fq-4" target="_TASKCNDh54R84NgH-Fq-10" edge="1">
          <mxGeometry relative="1" as="geometry" />
        </mxCell>
        <mxCell id="_TASKCNDh54R84NgH-Fq-20" style="edgeStyle=orthogonalEdgeStyle;rounded=0;orthogonalLoop=1;jettySize=auto;html=1;exitX=0;exitY=0.5;exitDx=0;exitDy=0;entryX=1;entryY=0.5;entryDx=0;entryDy=0;" parent="1" source="_TASKCNDh54R84NgH-Fq-4" target="_TASKCNDh54R84NgH-Fq-19" edge="1">
          <mxGeometry relative="1" as="geometry" />
        </mxCell>
        <mxCell id="_TASKCNDh54R84NgH-Fq-21" value="Go to Login" style="edgeLabel;html=1;align=center;verticalAlign=middle;resizable=0;points=[];" parent="_TASKCNDh54R84NgH-Fq-20" vertex="1" connectable="0">
          <mxGeometry x="0.0524" y="-3" relative="1" as="geometry">
            <mxPoint as="offset" />
          </mxGeometry>
        </mxCell>
        <mxCell id="_TASKCNDh54R84NgH-Fq-4" value="Sees introductory page" style="html=1;whiteSpace=wrap;" parent="1" vertex="1">
          <mxGeometry x="350" y="120" width="110" height="50" as="geometry" />
        </mxCell>
        <mxCell id="_TASKCNDh54R84NgH-Fq-6" value="Go to Register" style="text;html=1;align=center;verticalAlign=middle;resizable=0;points=[];autosize=1;strokeColor=none;fillColor=none;" parent="1" vertex="1">
          <mxGeometry x="465" y="120" width="100" height="30" as="geometry" />
        </mxCell>
        <mxCell id="_TASKCNDh54R84NgH-Fq-98" style="edgeStyle=orthogonalEdgeStyle;rounded=0;orthogonalLoop=1;jettySize=auto;html=1;exitX=0.818;exitY=0;exitDx=0;exitDy=0;entryX=1;entryY=0.5;entryDx=0;entryDy=0;exitPerimeter=0;" parent="1" source="_TASKCNDh54R84NgH-Fq-10" target="_TASKCNDh54R84NgH-Fq-15" edge="1">
          <mxGeometry relative="1" as="geometry" />
        </mxCell>
        <mxCell id="_TASKCNDh54R84NgH-Fq-99" value="submit registration info" style="edgeLabel;html=1;align=center;verticalAlign=middle;resizable=0;points=[];" parent="_TASKCNDh54R84NgH-Fq-98" vertex="1" connectable="0">
          <mxGeometry x="-0.286" y="2" relative="1" as="geometry">
            <mxPoint as="offset" />
          </mxGeometry>
        </mxCell>
        <mxCell id="_TASKCNDh54R84NgH-Fq-10" value="Registration" style="html=1;whiteSpace=wrap;" parent="1" vertex="1">
          <mxGeometry x="550" y="30" width="110" height="50" as="geometry" />
        </mxCell>
        <mxCell id="_TASKCNDh54R84NgH-Fq-13" value="Guest" style="shape=umlActor;verticalLabelPosition=bottom;verticalAlign=top;html=1;" parent="1" vertex="1">
          <mxGeometry x="340" y="15" width="30" height="60" as="geometry" />
        </mxCell>
        <mxCell id="_TASKCNDh54R84NgH-Fq-15" value="Register OK" style="rhombus;whiteSpace=wrap;html=1;fontColor=#000000;fillColor=#ffffc0;strokeColor=#ff0000;" parent="1" vertex="1">
          <mxGeometry x="730" y="100" width="80" height="40" as="geometry" />
        </mxCell>
        <mxCell id="_TASKCNDh54R84NgH-Fq-16" value="no" style="edgeStyle=orthogonalEdgeStyle;html=1;align=left;verticalAlign=bottom;endArrow=open;endSize=8;strokeColor=#ff0000;rounded=0;entryX=1;entryY=0.5;entryDx=0;entryDy=0;" parent="1" source="_TASKCNDh54R84NgH-Fq-15" target="_TASKCNDh54R84NgH-Fq-10" edge="1">
          <mxGeometry x="-1" relative="1" as="geometry">
            <mxPoint x="770" y="220" as="targetPoint" />
            <Array as="points">
              <mxPoint x="760" y="55" />
            </Array>
          </mxGeometry>
        </mxCell>
        <mxCell id="_TASKCNDh54R84NgH-Fq-17" value="yes" style="edgeStyle=orthogonalEdgeStyle;html=1;align=left;verticalAlign=top;endArrow=open;endSize=8;strokeColor=#ff0000;rounded=0;entryX=1;entryY=0.75;entryDx=0;entryDy=0;" parent="1" source="_TASKCNDh54R84NgH-Fq-15" target="_TASKCNDh54R84NgH-Fq-4" edge="1">
          <mxGeometry x="-1" relative="1" as="geometry">
            <mxPoint x="630" y="300" as="targetPoint" />
            <Array as="points">
              <mxPoint x="690" y="120" />
              <mxPoint x="690" y="157" />
            </Array>
          </mxGeometry>
        </mxCell>
        <mxCell id="_TASKCNDh54R84NgH-Fq-27" style="edgeStyle=orthogonalEdgeStyle;rounded=0;orthogonalLoop=1;jettySize=auto;html=1;entryX=0;entryY=0.5;entryDx=0;entryDy=0;" parent="1" source="_TASKCNDh54R84NgH-Fq-19" target="_TASKCNDh54R84NgH-Fq-22" edge="1">
          <mxGeometry relative="1" as="geometry">
            <mxPoint x="120" y="145" as="targetPoint" />
            <Array as="points">
              <mxPoint x="120" y="145" />
              <mxPoint x="120" y="220" />
            </Array>
          </mxGeometry>
        </mxCell>
        <mxCell id="_TASKCNDh54R84NgH-Fq-28" value="Insert login data" style="edgeLabel;html=1;align=center;verticalAlign=middle;resizable=0;points=[];" parent="_TASKCNDh54R84NgH-Fq-27" vertex="1" connectable="0">
          <mxGeometry x="-0.1513" relative="1" as="geometry">
            <mxPoint as="offset" />
          </mxGeometry>
        </mxCell>
        <mxCell id="_TASKCNDh54R84NgH-Fq-19" value="Logging in" style="html=1;whiteSpace=wrap;" parent="1" vertex="1">
          <mxGeometry x="140" y="120" width="110" height="50" as="geometry" />
        </mxCell>
        <mxCell id="_TASKCNDh54R84NgH-Fq-22" value="Login OK" style="rhombus;whiteSpace=wrap;html=1;fontColor=#000000;fillColor=#ffffc0;strokeColor=#ff0000;" parent="1" vertex="1">
          <mxGeometry x="160" y="200" width="80" height="40" as="geometry" />
        </mxCell>
        <mxCell id="_TASKCNDh54R84NgH-Fq-23" value="no" style="edgeStyle=orthogonalEdgeStyle;html=1;align=left;verticalAlign=bottom;endArrow=open;endSize=8;strokeColor=#ff0000;rounded=0;entryX=0.559;entryY=1.039;entryDx=0;entryDy=0;entryPerimeter=0;" parent="1" source="_TASKCNDh54R84NgH-Fq-22" target="_TASKCNDh54R84NgH-Fq-19" edge="1">
          <mxGeometry x="-1" relative="1" as="geometry">
            <mxPoint x="340" y="220" as="targetPoint" />
          </mxGeometry>
        </mxCell>
        <mxCell id="_TASKCNDh54R84NgH-Fq-24" value="yes" style="edgeStyle=orthogonalEdgeStyle;html=1;align=left;verticalAlign=top;endArrow=open;endSize=8;strokeColor=#ff0000;rounded=0;entryX=0.5;entryY=0;entryDx=0;entryDy=0;" parent="1" source="_TASKCNDh54R84NgH-Fq-22" target="_TASKCNDh54R84NgH-Fq-25" edge="1">
          <mxGeometry x="-1" relative="1" as="geometry">
            <mxPoint x="200" y="280" as="targetPoint" />
          </mxGeometry>
        </mxCell>
        <mxCell id="_TASKCNDh54R84NgH-Fq-35" style="edgeStyle=orthogonalEdgeStyle;rounded=0;orthogonalLoop=1;jettySize=auto;html=1;" parent="1" source="_TASKCNDh54R84NgH-Fq-25" target="_TASKCNDh54R84NgH-Fq-32" edge="1">
          <mxGeometry relative="1" as="geometry" />
        </mxCell>
        <mxCell id="_TASKCNDh54R84NgH-Fq-85" style="edgeStyle=orthogonalEdgeStyle;rounded=0;orthogonalLoop=1;jettySize=auto;html=1;exitX=0;exitY=0.5;exitDx=0;exitDy=0;" parent="1" source="_TASKCNDh54R84NgH-Fq-25" target="_TASKCNDh54R84NgH-Fq-84" edge="1">
          <mxGeometry relative="1" as="geometry" />
        </mxCell>
        <mxCell id="_TASKCNDh54R84NgH-Fq-87" value="toggles role" style="edgeLabel;html=1;align=center;verticalAlign=middle;resizable=0;points=[];" parent="_TASKCNDh54R84NgH-Fq-85" vertex="1" connectable="0">
          <mxGeometry x="0.2724" y="1" relative="1" as="geometry">
            <mxPoint x="8" y="-6" as="offset" />
          </mxGeometry>
        </mxCell>
        <mxCell id="_TASKCNDh54R84NgH-Fq-93" style="edgeStyle=orthogonalEdgeStyle;rounded=0;orthogonalLoop=1;jettySize=auto;html=1;exitX=0;exitY=0.75;exitDx=0;exitDy=0;entryX=0.5;entryY=0;entryDx=0;entryDy=0;" parent="1" source="_TASKCNDh54R84NgH-Fq-25" target="_TASKCNDh54R84NgH-Fq-92" edge="1">
          <mxGeometry relative="1" as="geometry">
            <Array as="points">
              <mxPoint x="130" y="318" />
              <mxPoint x="130" y="330" />
              <mxPoint x="-65" y="330" />
            </Array>
          </mxGeometry>
        </mxCell>
        <mxCell id="_TASKCNDh54R84NgH-Fq-95" value="wants to update account status" style="edgeLabel;html=1;align=center;verticalAlign=middle;resizable=0;points=[];" parent="_TASKCNDh54R84NgH-Fq-93" vertex="1" connectable="0">
          <mxGeometry x="-0.1671" relative="1" as="geometry">
            <mxPoint x="-12" as="offset" />
          </mxGeometry>
        </mxCell>
        <mxCell id="_TASKCNDh54R84NgH-Fq-25" value="Logged in" style="html=1;whiteSpace=wrap;" parent="1" vertex="1">
          <mxGeometry x="145" y="280" width="110" height="50" as="geometry" />
        </mxCell>
        <mxCell id="_TASKCNDh54R84NgH-Fq-32" value="is a parent" style="rhombus;whiteSpace=wrap;html=1;fontColor=#000000;fillColor=#ffffc0;strokeColor=#ff0000;" parent="1" vertex="1">
          <mxGeometry x="160" y="390" width="80" height="40" as="geometry" />
        </mxCell>
        <mxCell id="_TASKCNDh54R84NgH-Fq-33" value="yes" style="edgeStyle=orthogonalEdgeStyle;html=1;align=left;verticalAlign=bottom;endArrow=open;endSize=8;strokeColor=#ff0000;rounded=0;entryX=0;entryY=0.5;entryDx=0;entryDy=0;" parent="1" source="_TASKCNDh54R84NgH-Fq-32" target="_TASKCNDh54R84NgH-Fq-36" edge="1">
          <mxGeometry x="-1" relative="1" as="geometry">
            <mxPoint x="340" y="390" as="targetPoint" />
          </mxGeometry>
        </mxCell>
        <mxCell id="_TASKCNDh54R84NgH-Fq-34" value="no" style="edgeStyle=orthogonalEdgeStyle;html=1;align=left;verticalAlign=top;endArrow=open;endSize=8;strokeColor=#ff0000;rounded=0;entryX=0.5;entryY=0;entryDx=0;entryDy=0;" parent="1" source="_TASKCNDh54R84NgH-Fq-32" target="_TASKCNDh54R84NgH-Fq-67" edge="1">
          <mxGeometry x="-1" relative="1" as="geometry">
            <mxPoint x="220" y="460" as="targetPoint" />
            <Array as="points">
              <mxPoint x="200" y="460" />
              <mxPoint x="-30" y="460" />
            </Array>
          </mxGeometry>
        </mxCell>
        <mxCell id="_TASKCNDh54R84NgH-Fq-49" style="edgeStyle=orthogonalEdgeStyle;rounded=0;orthogonalLoop=1;jettySize=auto;html=1;" parent="1" source="_TASKCNDh54R84NgH-Fq-36" target="_TASKCNDh54R84NgH-Fq-47" edge="1">
          <mxGeometry relative="1" as="geometry" />
        </mxCell>
        <mxCell id="_TASKCNDh54R84NgH-Fq-50" value="clicks on school list" style="edgeLabel;html=1;align=center;verticalAlign=middle;resizable=0;points=[];" parent="_TASKCNDh54R84NgH-Fq-49" vertex="1" connectable="0">
          <mxGeometry x="-0.1333" y="1" relative="1" as="geometry">
            <mxPoint y="7" as="offset" />
          </mxGeometry>
        </mxCell>
        <mxCell id="_TASKCNDh54R84NgH-Fq-106" style="edgeStyle=orthogonalEdgeStyle;rounded=0;orthogonalLoop=1;jettySize=auto;html=1;exitX=0.25;exitY=0;exitDx=0;exitDy=0;entryX=0.5;entryY=0;entryDx=0;entryDy=0;" parent="1" source="_TASKCNDh54R84NgH-Fq-36" target="_TASKCNDh54R84NgH-Fq-100" edge="1">
          <mxGeometry relative="1" as="geometry" />
        </mxCell>
        <mxCell id="_TASKCNDh54R84NgH-Fq-107" value="wants to update children data" style="edgeLabel;html=1;align=center;verticalAlign=middle;resizable=0;points=[];" parent="_TASKCNDh54R84NgH-Fq-106" vertex="1" connectable="0">
          <mxGeometry x="-0.5422" y="1" relative="1" as="geometry">
            <mxPoint as="offset" />
          </mxGeometry>
        </mxCell>
        <mxCell id="_TASKCNDh54R84NgH-Fq-36" value="Is Parent" style="html=1;whiteSpace=wrap;" parent="1" vertex="1">
          <mxGeometry x="315" y="250" width="110" height="50" as="geometry" />
        </mxCell>
        <mxCell id="_TASKCNDh54R84NgH-Fq-60" style="edgeStyle=orthogonalEdgeStyle;rounded=0;orthogonalLoop=1;jettySize=auto;html=1;exitX=1;exitY=0.5;exitDx=0;exitDy=0;entryX=0;entryY=0.5;entryDx=0;entryDy=0;" parent="1" source="_TASKCNDh54R84NgH-Fq-47" target="_TASKCNDh54R84NgH-Fq-56" edge="1">
          <mxGeometry relative="1" as="geometry" />
        </mxCell>
        <mxCell id="_TASKCNDh54R84NgH-Fq-61" value="wants to apply" style="edgeLabel;html=1;align=center;verticalAlign=middle;resizable=0;points=[];" parent="_TASKCNDh54R84NgH-Fq-60" vertex="1" connectable="0">
          <mxGeometry x="0.0224" y="-1" relative="1" as="geometry">
            <mxPoint as="offset" />
          </mxGeometry>
        </mxCell>
        <mxCell id="_TASKCNDh54R84NgH-Fq-47" value="Sees a list of schools" style="html=1;whiteSpace=wrap;" parent="1" vertex="1">
          <mxGeometry x="565" y="300" width="110" height="50" as="geometry" />
        </mxCell>
        <mxCell id="_TASKCNDh54R84NgH-Fq-66" value="redirect to list of schools" style="edgeStyle=orthogonalEdgeStyle;rounded=0;orthogonalLoop=1;jettySize=auto;html=1;" parent="1" source="_TASKCNDh54R84NgH-Fq-48" target="_TASKCNDh54R84NgH-Fq-47" edge="1">
          <mxGeometry x="-0.0638" relative="1" as="geometry">
            <mxPoint as="offset" />
          </mxGeometry>
        </mxCell>
        <mxCell id="BBuvxylpBJwAQng4TnQ_-64" value="" style="edgeStyle=orthogonalEdgeStyle;rounded=0;orthogonalLoop=1;jettySize=auto;html=1;" edge="1" parent="1" source="_TASKCNDh54R84NgH-Fq-48" target="BBuvxylpBJwAQng4TnQ_-63">
          <mxGeometry relative="1" as="geometry" />
        </mxCell>
        <mxCell id="_TASKCNDh54R84NgH-Fq-48" value="Adds Children" style="html=1;whiteSpace=wrap;" parent="1" vertex="1">
          <mxGeometry x="340" y="390" width="110" height="50" as="geometry" />
        </mxCell>
        <mxCell id="_TASKCNDh54R84NgH-Fq-52" style="edgeStyle=orthogonalEdgeStyle;rounded=0;orthogonalLoop=1;jettySize=auto;html=1;entryX=0.559;entryY=0.039;entryDx=0;entryDy=0;entryPerimeter=0;" parent="1" source="_TASKCNDh54R84NgH-Fq-36" target="_TASKCNDh54R84NgH-Fq-48" edge="1">
          <mxGeometry relative="1" as="geometry" />
        </mxCell>
        <mxCell id="_TASKCNDh54R84NgH-Fq-53" value="goes to profile to add children" style="edgeLabel;html=1;align=center;verticalAlign=middle;resizable=0;points=[];" parent="_TASKCNDh54R84NgH-Fq-52" vertex="1" connectable="0">
          <mxGeometry x="0.0725" y="1" relative="1" as="geometry">
            <mxPoint as="offset" />
          </mxGeometry>
        </mxCell>
        <mxCell id="_TASKCNDh54R84NgH-Fq-56" value="has Children registered" style="rhombus;whiteSpace=wrap;html=1;fontColor=#000000;fillColor=#ffffc0;strokeColor=#ff0000;" parent="1" vertex="1">
          <mxGeometry x="760" y="280" width="80" height="40" as="geometry" />
        </mxCell>
        <mxCell id="_TASKCNDh54R84NgH-Fq-57" value="no" style="edgeStyle=orthogonalEdgeStyle;html=1;align=left;verticalAlign=bottom;endArrow=open;endSize=8;strokeColor=#ff0000;rounded=0;entryX=0.75;entryY=0;entryDx=0;entryDy=0;" parent="1" source="_TASKCNDh54R84NgH-Fq-56" target="_TASKCNDh54R84NgH-Fq-47" edge="1">
          <mxGeometry x="-1" relative="1" as="geometry">
            <mxPoint x="880" y="310" as="targetPoint" />
            <Array as="points">
              <mxPoint x="800" y="270" />
              <mxPoint x="648" y="270" />
            </Array>
          </mxGeometry>
        </mxCell>
        <mxCell id="_TASKCNDh54R84NgH-Fq-58" value="yes" style="edgeStyle=orthogonalEdgeStyle;html=1;align=left;verticalAlign=top;endArrow=open;endSize=8;strokeColor=#ff0000;rounded=0;entryX=0.5;entryY=0;entryDx=0;entryDy=0;" parent="1" source="_TASKCNDh54R84NgH-Fq-56" target="_TASKCNDh54R84NgH-Fq-59" edge="1">
          <mxGeometry x="-1" relative="1" as="geometry">
            <mxPoint x="740" y="390" as="targetPoint" />
          </mxGeometry>
        </mxCell>
        <mxCell id="_TASKCNDh54R84NgH-Fq-129" style="edgeStyle=orthogonalEdgeStyle;rounded=0;orthogonalLoop=1;jettySize=auto;html=1;entryX=1;entryY=0.75;entryDx=0;entryDy=0;" parent="1" source="_TASKCNDh54R84NgH-Fq-59" target="_TASKCNDh54R84NgH-Fq-36" edge="1">
          <mxGeometry relative="1" as="geometry">
            <Array as="points">
              <mxPoint x="520" y="400" />
              <mxPoint x="520" y="370" />
              <mxPoint x="480" y="370" />
              <mxPoint x="480" y="310" />
              <mxPoint x="425" y="310" />
            </Array>
          </mxGeometry>
        </mxCell>
        <mxCell id="_TASKCNDh54R84NgH-Fq-130" value="application successful" style="edgeLabel;html=1;align=center;verticalAlign=middle;resizable=0;points=[];" parent="_TASKCNDh54R84NgH-Fq-129" vertex="1" connectable="0">
          <mxGeometry x="0.1939" y="3" relative="1" as="geometry">
            <mxPoint as="offset" />
          </mxGeometry>
        </mxCell>
        <mxCell id="BBuvxylpBJwAQng4TnQ_-60" style="edgeStyle=orthogonalEdgeStyle;rounded=0;orthogonalLoop=1;jettySize=auto;html=1;exitX=1;exitY=0;exitDx=0;exitDy=0;entryX=0.5;entryY=1;entryDx=0;entryDy=0;" edge="1" parent="1" source="_TASKCNDh54R84NgH-Fq-59" target="BBuvxylpBJwAQng4TnQ_-59">
          <mxGeometry relative="1" as="geometry" />
        </mxCell>
        <mxCell id="_TASKCNDh54R84NgH-Fq-59" value="Apply to a school" style="html=1;whiteSpace=wrap;" parent="1" vertex="1">
          <mxGeometry x="745" y="390" width="110" height="50" as="geometry" />
        </mxCell>
        <mxCell id="_TASKCNDh54R84NgH-Fq-67" value="is a principal" style="rhombus;whiteSpace=wrap;html=1;fontColor=#000000;fillColor=#ffffc0;strokeColor=#ff0000;" parent="1" vertex="1">
          <mxGeometry x="-70" y="480" width="80" height="40" as="geometry" />
        </mxCell>
        <mxCell id="_TASKCNDh54R84NgH-Fq-68" value="yes" style="edgeStyle=orthogonalEdgeStyle;html=1;align=left;verticalAlign=bottom;endArrow=open;endSize=8;strokeColor=#ff0000;rounded=0;entryX=0;entryY=0.5;entryDx=0;entryDy=0;" parent="1" source="_TASKCNDh54R84NgH-Fq-67" target="_TASKCNDh54R84NgH-Fq-70" edge="1">
          <mxGeometry x="-1" relative="1" as="geometry">
            <mxPoint x="340" y="500" as="targetPoint" />
          </mxGeometry>
        </mxCell>
        <mxCell id="_TASKCNDh54R84NgH-Fq-69" value="no" style="edgeStyle=orthogonalEdgeStyle;html=1;align=left;verticalAlign=top;endArrow=open;endSize=8;strokeColor=#ff0000;rounded=0;entryX=1;entryY=0.5;entryDx=0;entryDy=0;" parent="1" source="_TASKCNDh54R84NgH-Fq-67" edge="1" target="BBuvxylpBJwAQng4TnQ_-8">
          <mxGeometry x="-1" relative="1" as="geometry">
            <mxPoint x="-100" y="630" as="targetPoint" />
            <Array as="points">
              <mxPoint x="-110" y="500" />
              <mxPoint x="-110" y="480" />
            </Array>
          </mxGeometry>
        </mxCell>
        <mxCell id="_TASKCNDh54R84NgH-Fq-82" style="edgeStyle=orthogonalEdgeStyle;rounded=0;orthogonalLoop=1;jettySize=auto;html=1;exitX=1;exitY=0.5;exitDx=0;exitDy=0;entryX=0.5;entryY=0;entryDx=0;entryDy=0;" parent="1" source="_TASKCNDh54R84NgH-Fq-70" target="_TASKCNDh54R84NgH-Fq-77" edge="1">
          <mxGeometry relative="1" as="geometry" />
        </mxCell>
        <mxCell id="_TASKCNDh54R84NgH-Fq-121" style="edgeStyle=orthogonalEdgeStyle;rounded=0;orthogonalLoop=1;jettySize=auto;html=1;exitX=1;exitY=0.25;exitDx=0;exitDy=0;" parent="1" source="_TASKCNDh54R84NgH-Fq-70" target="_TASKCNDh54R84NgH-Fq-120" edge="1">
          <mxGeometry relative="1" as="geometry" />
        </mxCell>
        <mxCell id="_TASKCNDh54R84NgH-Fq-122" value="goes to application list" style="edgeLabel;html=1;align=center;verticalAlign=middle;resizable=0;points=[];" parent="_TASKCNDh54R84NgH-Fq-121" vertex="1" connectable="0">
          <mxGeometry x="-0.1762" y="-3" relative="1" as="geometry">
            <mxPoint x="15" as="offset" />
          </mxGeometry>
        </mxCell>
        <mxCell id="_TASKCNDh54R84NgH-Fq-70" value="Is Principal" style="html=1;whiteSpace=wrap;" parent="1" vertex="1">
          <mxGeometry x="330" y="475" width="110" height="50" as="geometry" />
        </mxCell>
        <mxCell id="_TASKCNDh54R84NgH-Fq-77" value="already has school" style="rhombus;whiteSpace=wrap;html=1;fontColor=#000000;fillColor=#ffffc0;strokeColor=#ff0000;" parent="1" vertex="1">
          <mxGeometry x="420" y="550" width="80" height="40" as="geometry" />
        </mxCell>
        <mxCell id="_TASKCNDh54R84NgH-Fq-78" value="no" style="edgeStyle=orthogonalEdgeStyle;html=1;align=left;verticalAlign=bottom;endArrow=open;endSize=8;strokeColor=#ff0000;rounded=0;" parent="1" source="_TASKCNDh54R84NgH-Fq-77" target="_TASKCNDh54R84NgH-Fq-83" edge="1">
          <mxGeometry x="-1" relative="1" as="geometry">
            <mxPoint x="600" y="505" as="targetPoint" />
          </mxGeometry>
        </mxCell>
        <mxCell id="_TASKCNDh54R84NgH-Fq-79" value="yes" style="edgeStyle=orthogonalEdgeStyle;html=1;align=left;verticalAlign=top;endArrow=open;endSize=8;strokeColor=#ff0000;rounded=0;entryX=0;entryY=0.5;entryDx=0;entryDy=0;" parent="1" source="_TASKCNDh54R84NgH-Fq-77" target="_TASKCNDh54R84NgH-Fq-89" edge="1">
          <mxGeometry x="-0.8621" y="-10" relative="1" as="geometry">
            <mxPoint x="500" y="585" as="targetPoint" />
            <Array as="points">
              <mxPoint x="370" y="570" />
              <mxPoint x="370" y="665" />
            </Array>
            <mxPoint as="offset" />
          </mxGeometry>
        </mxCell>
        <mxCell id="_TASKCNDh54R84NgH-Fq-118" style="edgeStyle=orthogonalEdgeStyle;rounded=0;orthogonalLoop=1;jettySize=auto;html=1;exitX=0;exitY=0.25;exitDx=0;exitDy=0;entryX=0.75;entryY=0;entryDx=0;entryDy=0;" parent="1" source="_TASKCNDh54R84NgH-Fq-83" target="_TASKCNDh54R84NgH-Fq-70" edge="1">
          <mxGeometry relative="1" as="geometry">
            <Array as="points">
              <mxPoint x="530" y="550" />
              <mxPoint x="485" y="550" />
              <mxPoint x="485" y="455" />
              <mxPoint x="413" y="455" />
            </Array>
          </mxGeometry>
        </mxCell>
        <mxCell id="_TASKCNDh54R84NgH-Fq-119" value="added successfully" style="edgeLabel;html=1;align=center;verticalAlign=middle;resizable=0;points=[];" parent="_TASKCNDh54R84NgH-Fq-118" vertex="1" connectable="0">
          <mxGeometry x="-0.2327" relative="1" as="geometry">
            <mxPoint x="-5" y="-50" as="offset" />
          </mxGeometry>
        </mxCell>
        <mxCell id="BBuvxylpBJwAQng4TnQ_-71" style="edgeStyle=orthogonalEdgeStyle;rounded=0;orthogonalLoop=1;jettySize=auto;html=1;" edge="1" parent="1" source="_TASKCNDh54R84NgH-Fq-83" target="BBuvxylpBJwAQng4TnQ_-55">
          <mxGeometry relative="1" as="geometry">
            <Array as="points">
              <mxPoint x="585" y="630" />
              <mxPoint x="800" y="630" />
            </Array>
          </mxGeometry>
        </mxCell>
        <mxCell id="_TASKCNDh54R84NgH-Fq-83" value="Adds School" style="html=1;whiteSpace=wrap;" parent="1" vertex="1">
          <mxGeometry x="530" y="545" width="110" height="50" as="geometry" />
        </mxCell>
        <mxCell id="BBuvxylpBJwAQng4TnQ_-69" style="edgeStyle=orthogonalEdgeStyle;rounded=0;orthogonalLoop=1;jettySize=auto;html=1;exitX=0.5;exitY=0;exitDx=0;exitDy=0;" edge="1" parent="1" source="_TASKCNDh54R84NgH-Fq-84" target="BBuvxylpBJwAQng4TnQ_-67">
          <mxGeometry relative="1" as="geometry" />
        </mxCell>
        <mxCell id="_TASKCNDh54R84NgH-Fq-84" value="Toggle role" style="html=1;whiteSpace=wrap;" parent="1" vertex="1">
          <mxGeometry x="-120" y="270" width="110" height="50" as="geometry" />
        </mxCell>
        <mxCell id="_TASKCNDh54R84NgH-Fq-86" style="edgeStyle=orthogonalEdgeStyle;rounded=0;orthogonalLoop=1;jettySize=auto;html=1;entryX=0.301;entryY=-0.037;entryDx=0;entryDy=0;entryPerimeter=0;" parent="1" source="_TASKCNDh54R84NgH-Fq-84" target="_TASKCNDh54R84NgH-Fq-25" edge="1">
          <mxGeometry relative="1" as="geometry">
            <Array as="points">
              <mxPoint x="-10" y="260" />
              <mxPoint x="178" y="260" />
            </Array>
          </mxGeometry>
        </mxCell>
        <mxCell id="_TASKCNDh54R84NgH-Fq-88" value="role toggled" style="edgeLabel;html=1;align=center;verticalAlign=middle;resizable=0;points=[];" parent="_TASKCNDh54R84NgH-Fq-86" vertex="1" connectable="0">
          <mxGeometry x="0.0935" y="-1" relative="1" as="geometry">
            <mxPoint as="offset" />
          </mxGeometry>
        </mxCell>
        <mxCell id="_TASKCNDh54R84NgH-Fq-112" style="edgeStyle=orthogonalEdgeStyle;rounded=0;orthogonalLoop=1;jettySize=auto;html=1;entryX=0;entryY=0.5;entryDx=0;entryDy=0;" parent="1" source="_TASKCNDh54R84NgH-Fq-89" target="_TASKCNDh54R84NgH-Fq-110" edge="1">
          <mxGeometry relative="1" as="geometry" />
        </mxCell>
        <mxCell id="_TASKCNDh54R84NgH-Fq-113" value="updates school info" style="edgeLabel;html=1;align=center;verticalAlign=middle;resizable=0;points=[];" parent="_TASKCNDh54R84NgH-Fq-112" vertex="1" connectable="0">
          <mxGeometry x="-0.1988" y="2" relative="1" as="geometry">
            <mxPoint x="6" y="2" as="offset" />
          </mxGeometry>
        </mxCell>
        <mxCell id="cABZEbXXkZ-UkXELp6_u-3" style="edgeStyle=orthogonalEdgeStyle;rounded=0;orthogonalLoop=1;jettySize=auto;html=1;exitX=0;exitY=0.75;exitDx=0;exitDy=0;entryX=1;entryY=0.5;entryDx=0;entryDy=0;" parent="1" source="_TASKCNDh54R84NgH-Fq-89" target="_TASKCNDh54R84NgH-Fq-140" edge="1">
          <mxGeometry relative="1" as="geometry">
            <Array as="points">
              <mxPoint x="380" y="678" />
              <mxPoint x="380" y="595" />
            </Array>
          </mxGeometry>
        </mxCell>
        <mxCell id="cABZEbXXkZ-UkXELp6_u-4" value="wants to see teacher list" style="edgeLabel;html=1;align=center;verticalAlign=middle;resizable=0;points=[];" parent="cABZEbXXkZ-UkXELp6_u-3" vertex="1" connectable="0">
          <mxGeometry x="-0.0522" y="-2" relative="1" as="geometry">
            <mxPoint x="8" y="-5" as="offset" />
          </mxGeometry>
        </mxCell>
        <mxCell id="_TASKCNDh54R84NgH-Fq-89" value="Has School Registered" style="html=1;whiteSpace=wrap;" parent="1" vertex="1">
          <mxGeometry x="390" y="640" width="110" height="50" as="geometry" />
        </mxCell>
        <mxCell id="BBuvxylpBJwAQng4TnQ_-66" style="edgeStyle=orthogonalEdgeStyle;rounded=0;orthogonalLoop=1;jettySize=auto;html=1;exitX=0.5;exitY=1;exitDx=0;exitDy=0;" edge="1" parent="1" source="_TASKCNDh54R84NgH-Fq-92" target="BBuvxylpBJwAQng4TnQ_-65">
          <mxGeometry relative="1" as="geometry" />
        </mxCell>
        <mxCell id="_TASKCNDh54R84NgH-Fq-92" value="Manage account" style="html=1;whiteSpace=wrap;" parent="1" vertex="1">
          <mxGeometry x="-120" y="360" width="110" height="50" as="geometry" />
        </mxCell>
        <mxCell id="_TASKCNDh54R84NgH-Fq-94" style="edgeStyle=orthogonalEdgeStyle;rounded=0;orthogonalLoop=1;jettySize=auto;html=1;entryX=0.134;entryY=1.009;entryDx=0;entryDy=0;entryPerimeter=0;" parent="1" source="_TASKCNDh54R84NgH-Fq-92" target="_TASKCNDh54R84NgH-Fq-25" edge="1">
          <mxGeometry relative="1" as="geometry" />
        </mxCell>
        <mxCell id="_TASKCNDh54R84NgH-Fq-96" value="updated account status" style="edgeLabel;html=1;align=center;verticalAlign=middle;resizable=0;points=[];" parent="_TASKCNDh54R84NgH-Fq-94" vertex="1" connectable="0">
          <mxGeometry x="-0.4785" y="-2" relative="1" as="geometry">
            <mxPoint x="22" y="-2" as="offset" />
          </mxGeometry>
        </mxCell>
        <mxCell id="_TASKCNDh54R84NgH-Fq-100" value="has children registered" style="rhombus;whiteSpace=wrap;html=1;fontColor=#000000;fillColor=#ffffc0;strokeColor=#ff0000;" parent="1" vertex="1">
          <mxGeometry x="465" y="200" width="80" height="40" as="geometry" />
        </mxCell>
        <mxCell id="_TASKCNDh54R84NgH-Fq-101" value="no" style="edgeStyle=orthogonalEdgeStyle;html=1;align=left;verticalAlign=bottom;endArrow=open;endSize=8;strokeColor=#ff0000;rounded=0;" parent="1" source="_TASKCNDh54R84NgH-Fq-100" target="_TASKCNDh54R84NgH-Fq-36" edge="1">
          <mxGeometry x="-0.7599" relative="1" as="geometry">
            <mxPoint x="630" y="220" as="targetPoint" />
            <mxPoint as="offset" />
          </mxGeometry>
        </mxCell>
        <mxCell id="_TASKCNDh54R84NgH-Fq-102" value="yes" style="edgeStyle=orthogonalEdgeStyle;html=1;align=left;verticalAlign=top;endArrow=open;endSize=8;strokeColor=#ff0000;rounded=0;" parent="1" source="_TASKCNDh54R84NgH-Fq-100" target="_TASKCNDh54R84NgH-Fq-103" edge="1">
          <mxGeometry x="-1" relative="1" as="geometry">
            <mxPoint x="490" y="300" as="targetPoint" />
          </mxGeometry>
        </mxCell>
        <mxCell id="_TASKCNDh54R84NgH-Fq-104" style="edgeStyle=orthogonalEdgeStyle;rounded=0;orthogonalLoop=1;jettySize=auto;html=1;entryX=1;entryY=0.25;entryDx=0;entryDy=0;" parent="1" edge="1">
          <mxGeometry relative="1" as="geometry">
            <mxPoint x="675" y="220" as="sourcePoint" />
            <mxPoint x="424.9999999999998" y="252.5" as="targetPoint" />
            <Array as="points">
              <mxPoint x="675" y="253" />
              <mxPoint x="522" y="253" />
            </Array>
          </mxGeometry>
        </mxCell>
        <mxCell id="_TASKCNDh54R84NgH-Fq-105" value="children data modified" style="edgeLabel;html=1;align=center;verticalAlign=middle;resizable=0;points=[];" parent="_TASKCNDh54R84NgH-Fq-104" vertex="1" connectable="0">
          <mxGeometry x="0.1821" y="-1" relative="1" as="geometry">
            <mxPoint as="offset" />
          </mxGeometry>
        </mxCell>
        <mxCell id="BBuvxylpBJwAQng4TnQ_-62" value="" style="edgeStyle=orthogonalEdgeStyle;rounded=0;orthogonalLoop=1;jettySize=auto;html=1;" edge="1" parent="1" source="_TASKCNDh54R84NgH-Fq-103" target="BBuvxylpBJwAQng4TnQ_-61">
          <mxGeometry relative="1" as="geometry" />
        </mxCell>
        <mxCell id="_TASKCNDh54R84NgH-Fq-103" value="Modifies children data" style="html=1;whiteSpace=wrap;" parent="1" vertex="1">
          <mxGeometry x="620" y="180" width="110" height="50" as="geometry" />
        </mxCell>
        <mxCell id="BBuvxylpBJwAQng4TnQ_-56" value="" style="edgeStyle=orthogonalEdgeStyle;rounded=0;orthogonalLoop=1;jettySize=auto;html=1;" edge="1" parent="1" source="_TASKCNDh54R84NgH-Fq-110" target="BBuvxylpBJwAQng4TnQ_-55">
          <mxGeometry relative="1" as="geometry" />
        </mxCell>
        <mxCell id="_TASKCNDh54R84NgH-Fq-110" value="School data modified" style="html=1;whiteSpace=wrap;" parent="1" vertex="1">
          <mxGeometry x="640" y="640" width="110" height="50" as="geometry" />
        </mxCell>
        <mxCell id="_TASKCNDh54R84NgH-Fq-115" style="edgeStyle=orthogonalEdgeStyle;rounded=0;orthogonalLoop=1;jettySize=auto;html=1;exitX=0.514;exitY=1.013;exitDx=0;exitDy=0;exitPerimeter=0;entryX=0.182;entryY=0.989;entryDx=0;entryDy=0;entryPerimeter=0;" parent="1" target="_TASKCNDh54R84NgH-Fq-70" edge="1" source="_TASKCNDh54R84NgH-Fq-110">
          <mxGeometry relative="1" as="geometry">
            <mxPoint x="698" y="708" as="sourcePoint" />
            <mxPoint x="360" y="530" as="targetPoint" />
            <Array as="points">
              <mxPoint x="697" y="728" />
              <mxPoint x="350" y="728" />
            </Array>
          </mxGeometry>
        </mxCell>
        <mxCell id="_TASKCNDh54R84NgH-Fq-116" value="successfuly modified" style="edgeLabel;html=1;align=center;verticalAlign=middle;resizable=0;points=[];" parent="_TASKCNDh54R84NgH-Fq-115" vertex="1" connectable="0">
          <mxGeometry x="-0.1715" relative="1" as="geometry">
            <mxPoint as="offset" />
          </mxGeometry>
        </mxCell>
        <mxCell id="_TASKCNDh54R84NgH-Fq-124" style="edgeStyle=orthogonalEdgeStyle;rounded=0;orthogonalLoop=1;jettySize=auto;html=1;entryX=0;entryY=0.5;entryDx=0;entryDy=0;" parent="1" source="_TASKCNDh54R84NgH-Fq-120" target="_TASKCNDh54R84NgH-Fq-123" edge="1">
          <mxGeometry relative="1" as="geometry" />
        </mxCell>
        <mxCell id="_TASKCNDh54R84NgH-Fq-125" value="click on an application" style="edgeLabel;html=1;align=center;verticalAlign=middle;resizable=0;points=[];" parent="_TASKCNDh54R84NgH-Fq-124" vertex="1" connectable="0">
          <mxGeometry x="-0.0118" relative="1" as="geometry">
            <mxPoint as="offset" />
          </mxGeometry>
        </mxCell>
        <mxCell id="_TASKCNDh54R84NgH-Fq-120" value="Sees a list of applications" style="html=1;whiteSpace=wrap;" parent="1" vertex="1">
          <mxGeometry x="610" y="475" width="110" height="50" as="geometry" />
        </mxCell>
        <mxCell id="cABZEbXXkZ-UkXELp6_u-30" style="edgeStyle=orthogonalEdgeStyle;rounded=0;orthogonalLoop=1;jettySize=auto;html=1;exitX=0.25;exitY=0;exitDx=0;exitDy=0;entryX=0;entryY=0.5;entryDx=0;entryDy=0;" parent="1" source="_TASKCNDh54R84NgH-Fq-123" target="cABZEbXXkZ-UkXELp6_u-25" edge="1">
          <mxGeometry relative="1" as="geometry" />
        </mxCell>
        <mxCell id="_TASKCNDh54R84NgH-Fq-123" value="Sees a particular application" style="html=1;whiteSpace=wrap;" parent="1" vertex="1">
          <mxGeometry x="870" y="475" width="110" height="50" as="geometry" />
        </mxCell>
        <mxCell id="_TASKCNDh54R84NgH-Fq-131" value="accepts application" style="rhombus;whiteSpace=wrap;html=1;fontColor=#000000;fillColor=#ffffc0;strokeColor=#ff0000;" parent="1" vertex="1">
          <mxGeometry x="1025" y="485" width="80" height="40" as="geometry" />
        </mxCell>
        <mxCell id="_TASKCNDh54R84NgH-Fq-132" value="no" style="edgeStyle=orthogonalEdgeStyle;html=1;align=left;verticalAlign=bottom;endArrow=open;endSize=8;strokeColor=#ff0000;rounded=0;entryX=-0.004;entryY=0.641;entryDx=0;entryDy=0;entryPerimeter=0;" parent="1" source="_TASKCNDh54R84NgH-Fq-131" target="_TASKCNDh54R84NgH-Fq-134" edge="1">
          <mxGeometry x="-0.9016" y="-5" relative="1" as="geometry">
            <mxPoint x="1060" y="580" as="targetPoint" />
            <Array as="points">
              <mxPoint x="1000" y="505" />
              <mxPoint x="1000" y="572" />
            </Array>
            <mxPoint as="offset" />
          </mxGeometry>
        </mxCell>
        <mxCell id="_TASKCNDh54R84NgH-Fq-133" value="yes" style="edgeStyle=orthogonalEdgeStyle;html=1;align=left;verticalAlign=top;endArrow=open;endSize=8;strokeColor=#ff0000;rounded=0;entryX=1;entryY=0.5;entryDx=0;entryDy=0;" parent="1" source="_TASKCNDh54R84NgH-Fq-131" target="cABZEbXXkZ-UkXELp6_u-24" edge="1">
          <mxGeometry x="-1" relative="1" as="geometry">
            <mxPoint x="920" y="660" as="targetPoint" />
            <Array as="points">
              <mxPoint x="1190" y="505" />
              <mxPoint x="1190" y="655" />
            </Array>
          </mxGeometry>
        </mxCell>
        <mxCell id="BBuvxylpBJwAQng4TnQ_-70" style="edgeStyle=orthogonalEdgeStyle;rounded=0;orthogonalLoop=1;jettySize=auto;html=1;entryX=1;entryY=0.5;entryDx=0;entryDy=0;" edge="1" parent="1" source="_TASKCNDh54R84NgH-Fq-134" target="BBuvxylpBJwAQng4TnQ_-57">
          <mxGeometry relative="1" as="geometry">
            <Array as="points">
              <mxPoint x="1150" y="565" />
              <mxPoint x="1150" y="735" />
            </Array>
          </mxGeometry>
        </mxCell>
        <mxCell id="_TASKCNDh54R84NgH-Fq-134" value="Application deleted" style="html=1;whiteSpace=wrap;" parent="1" vertex="1">
          <mxGeometry x="1010" y="540" width="110" height="50" as="geometry" />
        </mxCell>
        <mxCell id="_TASKCNDh54R84NgH-Fq-135" style="edgeStyle=orthogonalEdgeStyle;rounded=0;orthogonalLoop=1;jettySize=auto;html=1;exitX=0.5;exitY=1;exitDx=0;exitDy=0;entryX=0.657;entryY=1.002;entryDx=0;entryDy=0;entryPerimeter=0;" parent="1" source="_TASKCNDh54R84NgH-Fq-134" target="_TASKCNDh54R84NgH-Fq-120" edge="1">
          <mxGeometry relative="1" as="geometry" />
        </mxCell>
        <mxCell id="_TASKCNDh54R84NgH-Fq-138" value="back to application list" style="edgeLabel;html=1;align=center;verticalAlign=middle;resizable=0;points=[];" parent="_TASKCNDh54R84NgH-Fq-135" vertex="1" connectable="0">
          <mxGeometry x="0.1599" y="-1" relative="1" as="geometry">
            <mxPoint as="offset" />
          </mxGeometry>
        </mxCell>
        <mxCell id="_TASKCNDh54R84NgH-Fq-148" style="edgeStyle=orthogonalEdgeStyle;rounded=0;orthogonalLoop=1;jettySize=auto;html=1;" parent="1" source="_TASKCNDh54R84NgH-Fq-140" target="_TASKCNDh54R84NgH-Fq-146" edge="1">
          <mxGeometry relative="1" as="geometry" />
        </mxCell>
        <mxCell id="_TASKCNDh54R84NgH-Fq-149" value="invites new teacher" style="edgeLabel;html=1;align=center;verticalAlign=middle;resizable=0;points=[];" parent="_TASKCNDh54R84NgH-Fq-148" vertex="1" connectable="0">
          <mxGeometry x="0.2078" y="2" relative="1" as="geometry">
            <mxPoint x="6" y="-2" as="offset" />
          </mxGeometry>
        </mxCell>
        <mxCell id="_TASKCNDh54R84NgH-Fq-140" value="Sees teacher list" style="html=1;whiteSpace=wrap;" parent="1" vertex="1">
          <mxGeometry x="230" y="570" width="110" height="50" as="geometry" />
        </mxCell>
        <mxCell id="_TASKCNDh54R84NgH-Fq-163" style="edgeStyle=orthogonalEdgeStyle;rounded=0;orthogonalLoop=1;jettySize=auto;html=1;entryX=0.626;entryY=0.005;entryDx=0;entryDy=0;entryPerimeter=0;" parent="1" source="_TASKCNDh54R84NgH-Fq-143" target="_TASKCNDh54R84NgH-Fq-160" edge="1">
          <mxGeometry relative="1" as="geometry" />
        </mxCell>
        <mxCell id="_TASKCNDh54R84NgH-Fq-164" value="chooses the class for teacher" style="edgeLabel;html=1;align=center;verticalAlign=middle;resizable=0;points=[];" parent="_TASKCNDh54R84NgH-Fq-163" vertex="1" connectable="0">
          <mxGeometry x="-0.3466" relative="1" as="geometry">
            <mxPoint as="offset" />
          </mxGeometry>
        </mxCell>
        <mxCell id="_TASKCNDh54R84NgH-Fq-143" value="Sees available classes" style="html=1;whiteSpace=wrap;" parent="1" vertex="1">
          <mxGeometry x="220" y="760" width="110" height="50" as="geometry" />
        </mxCell>
        <mxCell id="_TASKCNDh54R84NgH-Fq-144" style="edgeStyle=orthogonalEdgeStyle;rounded=0;orthogonalLoop=1;jettySize=auto;html=1;entryX=0.166;entryY=0.006;entryDx=0;entryDy=0;entryPerimeter=0;" parent="1" source="_TASKCNDh54R84NgH-Fq-140" target="_TASKCNDh54R84NgH-Fq-143" edge="1">
          <mxGeometry relative="1" as="geometry" />
        </mxCell>
        <mxCell id="_TASKCNDh54R84NgH-Fq-145" value="assigns teacher to class" style="edgeLabel;html=1;align=center;verticalAlign=middle;resizable=0;points=[];" parent="_TASKCNDh54R84NgH-Fq-144" vertex="1" connectable="0">
          <mxGeometry x="-0.1912" y="2" relative="1" as="geometry">
            <mxPoint as="offset" />
          </mxGeometry>
        </mxCell>
        <mxCell id="_TASKCNDh54R84NgH-Fq-155" style="edgeStyle=orthogonalEdgeStyle;rounded=0;orthogonalLoop=1;jettySize=auto;html=1;exitX=0.25;exitY=1;exitDx=0;exitDy=0;entryX=0.5;entryY=0;entryDx=0;entryDy=0;" parent="1" source="_TASKCNDh54R84NgH-Fq-146" target="_TASKCNDh54R84NgH-Fq-152" edge="1">
          <mxGeometry relative="1" as="geometry" />
        </mxCell>
        <mxCell id="_TASKCNDh54R84NgH-Fq-146" value="Enters teacher identifier" style="html=1;whiteSpace=wrap;" parent="1" vertex="1">
          <mxGeometry x="-50" y="570" width="110" height="50" as="geometry" />
        </mxCell>
        <mxCell id="_TASKCNDh54R84NgH-Fq-152" value="valid identifier" style="rhombus;whiteSpace=wrap;html=1;fontColor=#000000;fillColor=#ffffc0;strokeColor=#ff0000;" parent="1" vertex="1">
          <mxGeometry x="-50" y="640" width="80" height="40" as="geometry" />
        </mxCell>
        <mxCell id="_TASKCNDh54R84NgH-Fq-153" value="no" style="edgeStyle=orthogonalEdgeStyle;html=1;align=left;verticalAlign=bottom;endArrow=open;endSize=8;strokeColor=#ff0000;rounded=0;entryX=0;entryY=0.6;entryDx=0;entryDy=0;entryPerimeter=0;" parent="1" source="_TASKCNDh54R84NgH-Fq-152" target="_TASKCNDh54R84NgH-Fq-140" edge="1">
          <mxGeometry x="-1" relative="1" as="geometry">
            <mxPoint x="150" y="640" as="targetPoint" />
            <Array as="points">
              <mxPoint x="130" y="650" />
              <mxPoint x="130" y="610" />
              <mxPoint x="210" y="610" />
              <mxPoint x="210" y="600" />
            </Array>
          </mxGeometry>
        </mxCell>
        <mxCell id="_TASKCNDh54R84NgH-Fq-154" value="yes" style="edgeStyle=orthogonalEdgeStyle;html=1;align=left;verticalAlign=top;endArrow=open;endSize=8;strokeColor=#ff0000;rounded=0;entryX=0.456;entryY=-0.04;entryDx=0;entryDy=0;entryPerimeter=0;" parent="1" source="_TASKCNDh54R84NgH-Fq-152" target="_TASKCNDh54R84NgH-Fq-156" edge="1">
          <mxGeometry x="-1" relative="1" as="geometry">
            <mxPoint x="10" y="720" as="targetPoint" />
          </mxGeometry>
        </mxCell>
        <mxCell id="BBuvxylpBJwAQng4TnQ_-50" value="" style="edgeStyle=orthogonalEdgeStyle;rounded=0;orthogonalLoop=1;jettySize=auto;html=1;" edge="1" parent="1" source="_TASKCNDh54R84NgH-Fq-156" target="BBuvxylpBJwAQng4TnQ_-49">
          <mxGeometry relative="1" as="geometry" />
        </mxCell>
        <mxCell id="_TASKCNDh54R84NgH-Fq-156" value="Teacher added" style="html=1;whiteSpace=wrap;" parent="1" vertex="1">
          <mxGeometry x="-50" y="730" width="110" height="50" as="geometry" />
        </mxCell>
        <mxCell id="_TASKCNDh54R84NgH-Fq-157" style="edgeStyle=orthogonalEdgeStyle;rounded=0;orthogonalLoop=1;jettySize=auto;html=1;entryX=-0.003;entryY=0.924;entryDx=0;entryDy=0;entryPerimeter=0;" parent="1" source="_TASKCNDh54R84NgH-Fq-156" target="_TASKCNDh54R84NgH-Fq-140" edge="1">
          <mxGeometry relative="1" as="geometry" />
        </mxCell>
        <mxCell id="_TASKCNDh54R84NgH-Fq-158" value="redirect to teacher list" style="edgeLabel;html=1;align=center;verticalAlign=middle;resizable=0;points=[];" parent="_TASKCNDh54R84NgH-Fq-157" vertex="1" connectable="0">
          <mxGeometry x="-0.7134" relative="1" as="geometry">
            <mxPoint x="17" as="offset" />
          </mxGeometry>
        </mxCell>
        <mxCell id="_TASKCNDh54R84NgH-Fq-160" value="teacherless class" style="rhombus;whiteSpace=wrap;html=1;fontColor=#000000;fillColor=#ffffc0;strokeColor=#ff0000;" parent="1" vertex="1">
          <mxGeometry x="230" y="880" width="80" height="40" as="geometry" />
        </mxCell>
        <mxCell id="_TASKCNDh54R84NgH-Fq-161" value="no" style="edgeStyle=orthogonalEdgeStyle;html=1;align=left;verticalAlign=bottom;endArrow=open;endSize=8;strokeColor=#ff0000;rounded=0;entryX=0.061;entryY=0.98;entryDx=0;entryDy=0;entryPerimeter=0;" parent="1" source="_TASKCNDh54R84NgH-Fq-160" target="_TASKCNDh54R84NgH-Fq-140" edge="1">
          <mxGeometry x="-0.8225" relative="1" as="geometry">
            <mxPoint x="410" y="860" as="targetPoint" />
            <Array as="points">
              <mxPoint x="210" y="860" />
              <mxPoint x="210" y="619" />
            </Array>
            <mxPoint as="offset" />
          </mxGeometry>
        </mxCell>
        <mxCell id="_TASKCNDh54R84NgH-Fq-162" value="yes" style="edgeStyle=orthogonalEdgeStyle;html=1;align=left;verticalAlign=top;endArrow=open;endSize=8;strokeColor=#ff0000;rounded=0;entryX=0.5;entryY=0;entryDx=0;entryDy=0;" parent="1" source="_TASKCNDh54R84NgH-Fq-160" target="_TASKCNDh54R84NgH-Fq-166" edge="1">
          <mxGeometry x="-1" relative="1" as="geometry">
            <mxPoint x="270" y="940" as="targetPoint" />
          </mxGeometry>
        </mxCell>
        <mxCell id="_TASKCNDh54R84NgH-Fq-167" style="edgeStyle=orthogonalEdgeStyle;rounded=0;orthogonalLoop=1;jettySize=auto;html=1;entryX=1;entryY=0.75;entryDx=0;entryDy=0;" parent="1" source="_TASKCNDh54R84NgH-Fq-166" target="_TASKCNDh54R84NgH-Fq-140" edge="1">
          <mxGeometry relative="1" as="geometry">
            <Array as="points">
              <mxPoint x="360" y="975" />
              <mxPoint x="360" y="608" />
            </Array>
          </mxGeometry>
        </mxCell>
        <mxCell id="_TASKCNDh54R84NgH-Fq-168" value="redirect" style="edgeLabel;html=1;align=center;verticalAlign=middle;resizable=0;points=[];" parent="_TASKCNDh54R84NgH-Fq-167" vertex="1" connectable="0">
          <mxGeometry x="-0.4106" y="1" relative="1" as="geometry">
            <mxPoint as="offset" />
          </mxGeometry>
        </mxCell>
        <mxCell id="BBuvxylpBJwAQng4TnQ_-72" style="edgeStyle=orthogonalEdgeStyle;rounded=0;orthogonalLoop=1;jettySize=auto;html=1;entryX=0.5;entryY=1;entryDx=0;entryDy=0;" edge="1" parent="1" source="_TASKCNDh54R84NgH-Fq-166" target="BBuvxylpBJwAQng4TnQ_-49">
          <mxGeometry relative="1" as="geometry" />
        </mxCell>
        <mxCell id="_TASKCNDh54R84NgH-Fq-166" value="Class and teacher linked successfully" style="html=1;whiteSpace=wrap;" parent="1" vertex="1">
          <mxGeometry x="215" y="950" width="110" height="50" as="geometry" />
        </mxCell>
        <mxCell id="cABZEbXXkZ-UkXELp6_u-13" style="edgeStyle=orthogonalEdgeStyle;rounded=0;orthogonalLoop=1;jettySize=auto;html=1;exitX=1;exitY=0.5;exitDx=0;exitDy=0;entryX=0;entryY=0.5;entryDx=0;entryDy=0;" parent="1" source="cABZEbXXkZ-UkXELp6_u-2" target="cABZEbXXkZ-UkXELp6_u-10" edge="1">
          <mxGeometry relative="1" as="geometry" />
        </mxCell>
        <mxCell id="cABZEbXXkZ-UkXELp6_u-2" value="Sees classes list" style="rounded=0;whiteSpace=wrap;html=1;" parent="1" vertex="1">
          <mxGeometry x="380" y="760" width="120" height="60" as="geometry" />
        </mxCell>
        <mxCell id="cABZEbXXkZ-UkXELp6_u-6" style="edgeStyle=orthogonalEdgeStyle;rounded=0;orthogonalLoop=1;jettySize=auto;html=1;exitX=0.25;exitY=1;exitDx=0;exitDy=0;entryX=0.173;entryY=-0.001;entryDx=0;entryDy=0;entryPerimeter=0;" parent="1" source="_TASKCNDh54R84NgH-Fq-89" target="cABZEbXXkZ-UkXELp6_u-2" edge="1">
          <mxGeometry relative="1" as="geometry" />
        </mxCell>
        <mxCell id="cABZEbXXkZ-UkXELp6_u-7" value="wants to see classes list" style="edgeLabel;html=1;align=center;verticalAlign=middle;resizable=0;points=[];" parent="cABZEbXXkZ-UkXELp6_u-6" vertex="1" connectable="0">
          <mxGeometry x="-0.6367" y="-1" relative="1" as="geometry">
            <mxPoint x="8" as="offset" />
          </mxGeometry>
        </mxCell>
        <mxCell id="cABZEbXXkZ-UkXELp6_u-10" value="has classes" style="rhombus;whiteSpace=wrap;html=1;fontColor=#000000;fillColor=#ffffc0;strokeColor=#ff0000;" parent="1" vertex="1">
          <mxGeometry x="540" y="770" width="80" height="40" as="geometry" />
        </mxCell>
        <mxCell id="cABZEbXXkZ-UkXELp6_u-11" value="no" style="edgeStyle=orthogonalEdgeStyle;html=1;align=left;verticalAlign=bottom;endArrow=open;endSize=8;strokeColor=#ff0000;rounded=0;entryX=0.5;entryY=0;entryDx=0;entryDy=0;" parent="1" source="cABZEbXXkZ-UkXELp6_u-10" target="cABZEbXXkZ-UkXELp6_u-17" edge="1">
          <mxGeometry x="-1" relative="1" as="geometry">
            <mxPoint x="710" y="790" as="targetPoint" />
          </mxGeometry>
        </mxCell>
        <mxCell id="cABZEbXXkZ-UkXELp6_u-12" value="yes" style="edgeStyle=orthogonalEdgeStyle;html=1;align=left;verticalAlign=top;endArrow=open;endSize=8;strokeColor=#ff0000;rounded=0;entryX=0.5;entryY=0;entryDx=0;entryDy=0;" parent="1" source="cABZEbXXkZ-UkXELp6_u-10" target="cABZEbXXkZ-UkXELp6_u-14" edge="1">
          <mxGeometry x="-1" relative="1" as="geometry">
            <mxPoint x="580" y="870" as="targetPoint" />
          </mxGeometry>
        </mxCell>
        <mxCell id="cABZEbXXkZ-UkXELp6_u-18" style="edgeStyle=orthogonalEdgeStyle;rounded=0;orthogonalLoop=1;jettySize=auto;html=1;exitX=1;exitY=0.5;exitDx=0;exitDy=0;" parent="1" source="cABZEbXXkZ-UkXELp6_u-14" target="cABZEbXXkZ-UkXELp6_u-17" edge="1">
          <mxGeometry relative="1" as="geometry" />
        </mxCell>
        <mxCell id="cABZEbXXkZ-UkXELp6_u-19" value="&lt;div&gt;wants to add new &lt;br&gt;&lt;/div&gt;&lt;div&gt;class&lt;br&gt;&lt;/div&gt;" style="edgeLabel;html=1;align=center;verticalAlign=middle;resizable=0;points=[];" parent="cABZEbXXkZ-UkXELp6_u-18" vertex="1" connectable="0">
          <mxGeometry x="-0.1364" relative="1" as="geometry">
            <mxPoint x="12" as="offset" />
          </mxGeometry>
        </mxCell>
        <mxCell id="BBuvxylpBJwAQng4TnQ_-2" style="edgeStyle=orthogonalEdgeStyle;rounded=0;orthogonalLoop=1;jettySize=auto;html=1;exitX=0.5;exitY=1;exitDx=0;exitDy=0;" edge="1" parent="1" source="cABZEbXXkZ-UkXELp6_u-14" target="BBuvxylpBJwAQng4TnQ_-1">
          <mxGeometry relative="1" as="geometry" />
        </mxCell>
        <mxCell id="BBuvxylpBJwAQng4TnQ_-3" value="wants to update class info" style="edgeLabel;html=1;align=center;verticalAlign=middle;resizable=0;points=[];" vertex="1" connectable="0" parent="BBuvxylpBJwAQng4TnQ_-2">
          <mxGeometry x="0.0376" y="-3" relative="1" as="geometry">
            <mxPoint x="-2" y="1" as="offset" />
          </mxGeometry>
        </mxCell>
        <mxCell id="cABZEbXXkZ-UkXELp6_u-14" value="School has classes registered" style="html=1;whiteSpace=wrap;" parent="1" vertex="1">
          <mxGeometry x="530" y="875" width="110" height="50" as="geometry" />
        </mxCell>
        <mxCell id="cABZEbXXkZ-UkXELp6_u-20" style="edgeStyle=orthogonalEdgeStyle;rounded=0;orthogonalLoop=1;jettySize=auto;html=1;exitX=0.25;exitY=0;exitDx=0;exitDy=0;entryX=0.75;entryY=0;entryDx=0;entryDy=0;" parent="1" source="cABZEbXXkZ-UkXELp6_u-17" target="cABZEbXXkZ-UkXELp6_u-14" edge="1">
          <mxGeometry relative="1" as="geometry" />
        </mxCell>
        <mxCell id="cABZEbXXkZ-UkXELp6_u-22" value="class added successfully" style="edgeLabel;html=1;align=center;verticalAlign=middle;resizable=0;points=[];" parent="cABZEbXXkZ-UkXELp6_u-20" vertex="1" connectable="0">
          <mxGeometry x="-0.0966" y="-1" relative="1" as="geometry">
            <mxPoint as="offset" />
          </mxGeometry>
        </mxCell>
        <mxCell id="BBuvxylpBJwAQng4TnQ_-52" value="" style="edgeStyle=orthogonalEdgeStyle;rounded=0;orthogonalLoop=1;jettySize=auto;html=1;" edge="1" parent="1" source="cABZEbXXkZ-UkXELp6_u-17" target="BBuvxylpBJwAQng4TnQ_-51">
          <mxGeometry relative="1" as="geometry" />
        </mxCell>
        <mxCell id="cABZEbXXkZ-UkXELp6_u-17" value="Adds new class" style="html=1;whiteSpace=wrap;" parent="1" vertex="1">
          <mxGeometry x="770" y="875" width="110" height="50" as="geometry" />
        </mxCell>
        <mxCell id="cABZEbXXkZ-UkXELp6_u-32" style="edgeStyle=orthogonalEdgeStyle;rounded=0;orthogonalLoop=1;jettySize=auto;html=1;entryX=0.942;entryY=0.993;entryDx=0;entryDy=0;entryPerimeter=0;exitX=-0.005;exitY=0.653;exitDx=0;exitDy=0;exitPerimeter=0;" parent="1" source="cABZEbXXkZ-UkXELp6_u-24" target="_TASKCNDh54R84NgH-Fq-120" edge="1">
          <mxGeometry relative="1" as="geometry">
            <mxPoint x="1020" y="680.0049253731343" as="sourcePoint" />
            <mxPoint x="720" y="537.49" as="targetPoint" />
            <Array as="points">
              <mxPoint x="870" y="663" />
              <mxPoint x="870" y="537" />
              <mxPoint x="714" y="537" />
            </Array>
          </mxGeometry>
        </mxCell>
        <mxCell id="cABZEbXXkZ-UkXELp6_u-33" value="back to application list" style="edgeLabel;html=1;align=center;verticalAlign=middle;resizable=0;points=[];" parent="cABZEbXXkZ-UkXELp6_u-32" vertex="1" connectable="0">
          <mxGeometry x="0.1618" y="-2" relative="1" as="geometry">
            <mxPoint as="offset" />
          </mxGeometry>
        </mxCell>
        <mxCell id="BBuvxylpBJwAQng4TnQ_-58" value="" style="edgeStyle=orthogonalEdgeStyle;rounded=0;orthogonalLoop=1;jettySize=auto;html=1;" edge="1" parent="1" source="cABZEbXXkZ-UkXELp6_u-24" target="BBuvxylpBJwAQng4TnQ_-57">
          <mxGeometry relative="1" as="geometry" />
        </mxCell>
        <mxCell id="cABZEbXXkZ-UkXELp6_u-24" value="Assigns student to class" style="html=1;whiteSpace=wrap;" parent="1" vertex="1">
          <mxGeometry x="1020" y="630" width="110" height="50" as="geometry" />
        </mxCell>
        <mxCell id="cABZEbXXkZ-UkXELp6_u-25" value="has classes" style="rhombus;whiteSpace=wrap;html=1;fontColor=#000000;fillColor=#ffffc0;strokeColor=#ff0000;" parent="1" vertex="1">
          <mxGeometry x="900" y="330" width="80" height="40" as="geometry" />
        </mxCell>
        <mxCell id="cABZEbXXkZ-UkXELp6_u-26" value="no" style="edgeStyle=orthogonalEdgeStyle;html=1;align=left;verticalAlign=bottom;endArrow=open;endSize=8;strokeColor=#ff0000;rounded=0;" parent="1" source="cABZEbXXkZ-UkXELp6_u-25" target="_TASKCNDh54R84NgH-Fq-123" edge="1">
          <mxGeometry x="-0.8333" y="-20" relative="1" as="geometry">
            <mxPoint x="1100" y="420" as="targetPoint" />
            <mxPoint as="offset" />
          </mxGeometry>
        </mxCell>
        <mxCell id="cABZEbXXkZ-UkXELp6_u-27" value="yes" style="edgeStyle=orthogonalEdgeStyle;html=1;align=left;verticalAlign=top;endArrow=open;endSize=8;strokeColor=#ff0000;rounded=0;entryX=0.5;entryY=0;entryDx=0;entryDy=0;" parent="1" source="cABZEbXXkZ-UkXELp6_u-25" target="_TASKCNDh54R84NgH-Fq-131" edge="1">
          <mxGeometry x="-0.8857" y="14" relative="1" as="geometry">
            <mxPoint x="960" y="500" as="targetPoint" />
            <Array as="points">
              <mxPoint x="990" y="350" />
              <mxPoint x="990" y="380" />
              <mxPoint x="1065" y="380" />
            </Array>
            <mxPoint x="-4" y="-10" as="offset" />
          </mxGeometry>
        </mxCell>
        <mxCell id="BBuvxylpBJwAQng4TnQ_-5" style="edgeStyle=orthogonalEdgeStyle;rounded=0;orthogonalLoop=1;jettySize=auto;html=1;exitX=0;exitY=0.5;exitDx=0;exitDy=0;entryX=0;entryY=0.5;entryDx=0;entryDy=0;" edge="1" parent="1" source="BBuvxylpBJwAQng4TnQ_-1" target="cABZEbXXkZ-UkXELp6_u-14">
          <mxGeometry relative="1" as="geometry">
            <Array as="points">
              <mxPoint x="460" y="1019" />
              <mxPoint x="460" y="900" />
            </Array>
          </mxGeometry>
        </mxCell>
        <mxCell id="BBuvxylpBJwAQng4TnQ_-6" value="&lt;div&gt;class info&lt;/div&gt;&lt;div&gt;updated&lt;br&gt;&lt;/div&gt;" style="edgeLabel;html=1;align=center;verticalAlign=middle;resizable=0;points=[];" vertex="1" connectable="0" parent="BBuvxylpBJwAQng4TnQ_-5">
          <mxGeometry x="0.0385" relative="1" as="geometry">
            <mxPoint as="offset" />
          </mxGeometry>
        </mxCell>
        <mxCell id="BBuvxylpBJwAQng4TnQ_-54" value="" style="edgeStyle=orthogonalEdgeStyle;rounded=0;orthogonalLoop=1;jettySize=auto;html=1;" edge="1" parent="1" source="BBuvxylpBJwAQng4TnQ_-1" target="BBuvxylpBJwAQng4TnQ_-53">
          <mxGeometry relative="1" as="geometry" />
        </mxCell>
        <mxCell id="BBuvxylpBJwAQng4TnQ_-1" value="Updates class info" style="rounded=0;whiteSpace=wrap;html=1;" vertex="1" parent="1">
          <mxGeometry x="525" y="990" width="115" height="57.5" as="geometry" />
        </mxCell>
        <mxCell id="BBuvxylpBJwAQng4TnQ_-8" value="is a teacher" style="rhombus;whiteSpace=wrap;html=1;fontColor=#000000;fillColor=#ffffc0;strokeColor=#ff0000;" vertex="1" parent="1">
          <mxGeometry x="-320" y="460" width="80" height="40" as="geometry" />
        </mxCell>
        <mxCell id="BBuvxylpBJwAQng4TnQ_-9" value="no" style="edgeStyle=orthogonalEdgeStyle;html=1;align=left;verticalAlign=bottom;endArrow=open;endSize=8;strokeColor=#ff0000;rounded=0;entryX=0.462;entryY=-0.032;entryDx=0;entryDy=0;entryPerimeter=0;" edge="1" source="BBuvxylpBJwAQng4TnQ_-8" parent="1" target="BBuvxylpBJwAQng4TnQ_-18">
          <mxGeometry x="-0.7516" y="10" relative="1" as="geometry">
            <mxPoint x="-270" y="570" as="targetPoint" />
            <mxPoint as="offset" />
          </mxGeometry>
        </mxCell>
        <mxCell id="BBuvxylpBJwAQng4TnQ_-10" value="yes" style="edgeStyle=orthogonalEdgeStyle;html=1;align=left;verticalAlign=top;endArrow=open;endSize=8;strokeColor=#ff0000;rounded=0;entryX=0.996;entryY=0.392;entryDx=0;entryDy=0;entryPerimeter=0;" edge="1" source="BBuvxylpBJwAQng4TnQ_-8" parent="1" target="BBuvxylpBJwAQng4TnQ_-13">
          <mxGeometry x="-1" relative="1" as="geometry">
            <mxPoint x="-400" y="470" as="targetPoint" />
          </mxGeometry>
        </mxCell>
        <mxCell id="BBuvxylpBJwAQng4TnQ_-15" style="edgeStyle=orthogonalEdgeStyle;rounded=0;orthogonalLoop=1;jettySize=auto;html=1;entryX=0.5;entryY=1;entryDx=0;entryDy=0;" edge="1" parent="1" source="BBuvxylpBJwAQng4TnQ_-13" target="BBuvxylpBJwAQng4TnQ_-14">
          <mxGeometry relative="1" as="geometry" />
        </mxCell>
        <mxCell id="BBuvxylpBJwAQng4TnQ_-13" value="Is Teacher" style="html=1;whiteSpace=wrap;" vertex="1" parent="1">
          <mxGeometry x="-510" y="450" width="110" height="50" as="geometry" />
        </mxCell>
        <mxCell id="BBuvxylpBJwAQng4TnQ_-17" style="edgeStyle=orthogonalEdgeStyle;rounded=0;orthogonalLoop=1;jettySize=auto;html=1;exitX=0.5;exitY=0;exitDx=0;exitDy=0;entryX=0.5;entryY=1;entryDx=0;entryDy=0;" edge="1" parent="1" source="BBuvxylpBJwAQng4TnQ_-14" target="BBuvxylpBJwAQng4TnQ_-16">
          <mxGeometry relative="1" as="geometry" />
        </mxCell>
        <mxCell id="BBuvxylpBJwAQng4TnQ_-14" value="See a list of students they are responsible for" style="html=1;whiteSpace=wrap;" vertex="1" parent="1">
          <mxGeometry x="-510" y="325" width="110" height="50" as="geometry" />
        </mxCell>
        <mxCell id="BBuvxylpBJwAQng4TnQ_-16" value="" style="ellipse;html=1;shape=endState;fillColor=#000000;strokeColor=#ff0000;" vertex="1" parent="1">
          <mxGeometry x="-470" y="260" width="30" height="30" as="geometry" />
        </mxCell>
        <mxCell id="BBuvxylpBJwAQng4TnQ_-25" style="edgeStyle=orthogonalEdgeStyle;rounded=0;orthogonalLoop=1;jettySize=auto;html=1;exitX=0;exitY=0.5;exitDx=0;exitDy=0;" edge="1" parent="1" source="BBuvxylpBJwAQng4TnQ_-18" target="BBuvxylpBJwAQng4TnQ_-24">
          <mxGeometry relative="1" as="geometry" />
        </mxCell>
        <mxCell id="BBuvxylpBJwAQng4TnQ_-27" value="&lt;div&gt;it is time for the &lt;br&gt;&lt;/div&gt;&lt;div&gt;application period&lt;br&gt;&lt;/div&gt;" style="edgeLabel;html=1;align=center;verticalAlign=middle;resizable=0;points=[];" vertex="1" connectable="0" parent="BBuvxylpBJwAQng4TnQ_-25">
          <mxGeometry x="0.1389" y="4" relative="1" as="geometry">
            <mxPoint as="offset" />
          </mxGeometry>
        </mxCell>
        <mxCell id="BBuvxylpBJwAQng4TnQ_-34" value="" style="edgeStyle=orthogonalEdgeStyle;rounded=0;orthogonalLoop=1;jettySize=auto;html=1;" edge="1" parent="1" source="BBuvxylpBJwAQng4TnQ_-18" target="BBuvxylpBJwAQng4TnQ_-30">
          <mxGeometry relative="1" as="geometry" />
        </mxCell>
        <mxCell id="BBuvxylpBJwAQng4TnQ_-35" value="&lt;div&gt;wants to see &lt;br&gt;&lt;/div&gt;&lt;div&gt;principals list&lt;/div&gt;" style="edgeLabel;html=1;align=center;verticalAlign=middle;resizable=0;points=[];" vertex="1" connectable="0" parent="BBuvxylpBJwAQng4TnQ_-34">
          <mxGeometry x="-0.0756" y="1" relative="1" as="geometry">
            <mxPoint x="1" y="-1" as="offset" />
          </mxGeometry>
        </mxCell>
        <mxCell id="BBuvxylpBJwAQng4TnQ_-18" value="Is Administrator" style="html=1;whiteSpace=wrap;" vertex="1" parent="1">
          <mxGeometry x="-330" y="580" width="110" height="50" as="geometry" />
        </mxCell>
        <mxCell id="BBuvxylpBJwAQng4TnQ_-29" value="" style="edgeStyle=orthogonalEdgeStyle;rounded=0;orthogonalLoop=1;jettySize=auto;html=1;" edge="1" parent="1" source="BBuvxylpBJwAQng4TnQ_-24" target="BBuvxylpBJwAQng4TnQ_-28">
          <mxGeometry relative="1" as="geometry" />
        </mxCell>
        <mxCell id="BBuvxylpBJwAQng4TnQ_-24" value="Starts the application period" style="html=1;whiteSpace=wrap;" vertex="1" parent="1">
          <mxGeometry x="-610" y="570" width="110" height="50" as="geometry" />
        </mxCell>
        <mxCell id="BBuvxylpBJwAQng4TnQ_-28" value="" style="ellipse;html=1;shape=endState;fillColor=#000000;strokeColor=#ff0000;" vertex="1" parent="1">
          <mxGeometry x="-710" y="580" width="30" height="30" as="geometry" />
        </mxCell>
        <mxCell id="BBuvxylpBJwAQng4TnQ_-37" value="" style="edgeStyle=orthogonalEdgeStyle;rounded=0;orthogonalLoop=1;jettySize=auto;html=1;" edge="1" parent="1" source="BBuvxylpBJwAQng4TnQ_-30" target="BBuvxylpBJwAQng4TnQ_-36">
          <mxGeometry relative="1" as="geometry" />
        </mxCell>
        <mxCell id="BBuvxylpBJwAQng4TnQ_-38" value="&lt;div&gt;invites new &lt;br&gt;&lt;/div&gt;&lt;div&gt;principal&lt;br&gt;&lt;/div&gt;" style="edgeLabel;html=1;align=center;verticalAlign=middle;resizable=0;points=[];" vertex="1" connectable="0" parent="BBuvxylpBJwAQng4TnQ_-37">
          <mxGeometry x="0.24" y="1" relative="1" as="geometry">
            <mxPoint x="13" y="-1" as="offset" />
          </mxGeometry>
        </mxCell>
        <mxCell id="BBuvxylpBJwAQng4TnQ_-75" style="edgeStyle=orthogonalEdgeStyle;rounded=0;orthogonalLoop=1;jettySize=auto;html=1;" edge="1" parent="1" source="BBuvxylpBJwAQng4TnQ_-30" target="BBuvxylpBJwAQng4TnQ_-74">
          <mxGeometry relative="1" as="geometry" />
        </mxCell>
        <mxCell id="BBuvxylpBJwAQng4TnQ_-77" value="&lt;div&gt;clicks on a&lt;/div&gt;&lt;div&gt;principal&lt;/div&gt;" style="edgeLabel;html=1;align=center;verticalAlign=middle;resizable=0;points=[];" vertex="1" connectable="0" parent="BBuvxylpBJwAQng4TnQ_-75">
          <mxGeometry x="-0.3602" y="1" relative="1" as="geometry">
            <mxPoint as="offset" />
          </mxGeometry>
        </mxCell>
        <mxCell id="BBuvxylpBJwAQng4TnQ_-30" value="Sees list of principals" style="html=1;whiteSpace=wrap;" vertex="1" parent="1">
          <mxGeometry x="-335" y="700" width="110" height="50" as="geometry" />
        </mxCell>
        <mxCell id="BBuvxylpBJwAQng4TnQ_-42" style="edgeStyle=orthogonalEdgeStyle;rounded=0;orthogonalLoop=1;jettySize=auto;html=1;exitX=0.5;exitY=1;exitDx=0;exitDy=0;entryX=0.5;entryY=0;entryDx=0;entryDy=0;" edge="1" parent="1" source="BBuvxylpBJwAQng4TnQ_-36" target="BBuvxylpBJwAQng4TnQ_-39">
          <mxGeometry relative="1" as="geometry" />
        </mxCell>
        <mxCell id="BBuvxylpBJwAQng4TnQ_-36" value="Enters principal identifier" style="html=1;whiteSpace=wrap;" vertex="1" parent="1">
          <mxGeometry x="-570" y="700" width="110" height="50" as="geometry" />
        </mxCell>
        <mxCell id="BBuvxylpBJwAQng4TnQ_-39" value="valid identifier" style="rhombus;whiteSpace=wrap;html=1;fontColor=#000000;fillColor=#ffffc0;strokeColor=#ff0000;" vertex="1" parent="1">
          <mxGeometry x="-560" y="780" width="80" height="40" as="geometry" />
        </mxCell>
        <mxCell id="BBuvxylpBJwAQng4TnQ_-40" value="no" style="edgeStyle=orthogonalEdgeStyle;html=1;align=left;verticalAlign=bottom;endArrow=open;endSize=8;strokeColor=#ff0000;rounded=0;entryX=0.5;entryY=1;entryDx=0;entryDy=0;" edge="1" source="BBuvxylpBJwAQng4TnQ_-39" parent="1" target="BBuvxylpBJwAQng4TnQ_-30">
          <mxGeometry x="-1" relative="1" as="geometry">
            <mxPoint x="-90" y="700" as="targetPoint" />
          </mxGeometry>
        </mxCell>
        <mxCell id="BBuvxylpBJwAQng4TnQ_-41" value="yes" style="edgeStyle=orthogonalEdgeStyle;html=1;align=left;verticalAlign=top;endArrow=open;endSize=8;strokeColor=#ff0000;rounded=0;entryX=0.5;entryY=0;entryDx=0;entryDy=0;" edge="1" source="BBuvxylpBJwAQng4TnQ_-39" parent="1" target="BBuvxylpBJwAQng4TnQ_-43">
          <mxGeometry x="-1" relative="1" as="geometry">
            <mxPoint x="-530" y="880" as="targetPoint" />
          </mxGeometry>
        </mxCell>
        <mxCell id="BBuvxylpBJwAQng4TnQ_-44" style="edgeStyle=orthogonalEdgeStyle;rounded=0;orthogonalLoop=1;jettySize=auto;html=1;exitX=1;exitY=0.5;exitDx=0;exitDy=0;entryX=0.75;entryY=1;entryDx=0;entryDy=0;" edge="1" parent="1" source="BBuvxylpBJwAQng4TnQ_-43" target="BBuvxylpBJwAQng4TnQ_-30">
          <mxGeometry relative="1" as="geometry" />
        </mxCell>
        <mxCell id="BBuvxylpBJwAQng4TnQ_-45" value="redirect to principal list" style="edgeLabel;html=1;align=center;verticalAlign=middle;resizable=0;points=[];" vertex="1" connectable="0" parent="BBuvxylpBJwAQng4TnQ_-44">
          <mxGeometry x="-0.2975" y="-3" relative="1" as="geometry">
            <mxPoint as="offset" />
          </mxGeometry>
        </mxCell>
        <mxCell id="BBuvxylpBJwAQng4TnQ_-48" value="" style="edgeStyle=orthogonalEdgeStyle;rounded=0;orthogonalLoop=1;jettySize=auto;html=1;" edge="1" parent="1" source="BBuvxylpBJwAQng4TnQ_-43" target="BBuvxylpBJwAQng4TnQ_-46">
          <mxGeometry relative="1" as="geometry" />
        </mxCell>
        <mxCell id="BBuvxylpBJwAQng4TnQ_-43" value="Principal added" style="html=1;whiteSpace=wrap;" vertex="1" parent="1">
          <mxGeometry x="-580" y="880" width="110" height="50" as="geometry" />
        </mxCell>
        <mxCell id="BBuvxylpBJwAQng4TnQ_-46" value="" style="ellipse;html=1;shape=endState;fillColor=#000000;strokeColor=#ff0000;" vertex="1" parent="1">
          <mxGeometry x="-660" y="890" width="30" height="30" as="geometry" />
        </mxCell>
        <mxCell id="BBuvxylpBJwAQng4TnQ_-49" value="" style="ellipse;html=1;shape=endState;fillColor=#000000;strokeColor=#ff0000;" vertex="1" parent="1">
          <mxGeometry x="-10" y="820" width="30" height="30" as="geometry" />
        </mxCell>
        <mxCell id="BBuvxylpBJwAQng4TnQ_-51" value="" style="ellipse;html=1;shape=endState;fillColor=#000000;strokeColor=#ff0000;" vertex="1" parent="1">
          <mxGeometry x="810" y="950" width="30" height="30" as="geometry" />
        </mxCell>
        <mxCell id="BBuvxylpBJwAQng4TnQ_-53" value="" style="ellipse;html=1;shape=endState;fillColor=#000000;strokeColor=#ff0000;" vertex="1" parent="1">
          <mxGeometry x="675" y="1003.75" width="30" height="30" as="geometry" />
        </mxCell>
        <mxCell id="BBuvxylpBJwAQng4TnQ_-55" value="" style="ellipse;html=1;shape=endState;fillColor=#000000;strokeColor=#ff0000;" vertex="1" parent="1">
          <mxGeometry x="785" y="690" width="30" height="30" as="geometry" />
        </mxCell>
        <mxCell id="BBuvxylpBJwAQng4TnQ_-57" value="" style="ellipse;html=1;shape=endState;fillColor=#000000;strokeColor=#ff0000;" vertex="1" parent="1">
          <mxGeometry x="1060" y="720" width="30" height="30" as="geometry" />
        </mxCell>
        <mxCell id="BBuvxylpBJwAQng4TnQ_-59" value="" style="ellipse;html=1;shape=endState;fillColor=#000000;strokeColor=#ff0000;" vertex="1" parent="1">
          <mxGeometry x="855" y="260" width="30" height="30" as="geometry" />
        </mxCell>
        <mxCell id="BBuvxylpBJwAQng4TnQ_-61" value="" style="ellipse;html=1;shape=endState;fillColor=#000000;strokeColor=#ff0000;" vertex="1" parent="1">
          <mxGeometry x="780" y="190" width="30" height="30" as="geometry" />
        </mxCell>
        <mxCell id="BBuvxylpBJwAQng4TnQ_-63" value="" style="ellipse;html=1;shape=endState;fillColor=#000000;strokeColor=#ff0000;" vertex="1" parent="1">
          <mxGeometry x="280" y="420" width="30" height="30" as="geometry" />
        </mxCell>
        <mxCell id="BBuvxylpBJwAQng4TnQ_-65" value="" style="ellipse;html=1;shape=endState;fillColor=#000000;strokeColor=#ff0000;" vertex="1" parent="1">
          <mxGeometry x="-80" y="430" width="30" height="30" as="geometry" />
        </mxCell>
        <mxCell id="BBuvxylpBJwAQng4TnQ_-67" value="" style="ellipse;html=1;shape=endState;fillColor=#000000;strokeColor=#ff0000;" vertex="1" parent="1">
          <mxGeometry x="-80" y="205" width="30" height="30" as="geometry" />
        </mxCell>
        <mxCell id="BBuvxylpBJwAQng4TnQ_-78" style="edgeStyle=orthogonalEdgeStyle;rounded=0;orthogonalLoop=1;jettySize=auto;html=1;exitX=0.75;exitY=0;exitDx=0;exitDy=0;entryX=1;entryY=0;entryDx=0;entryDy=0;" edge="1" parent="1" source="BBuvxylpBJwAQng4TnQ_-74" target="BBuvxylpBJwAQng4TnQ_-30">
          <mxGeometry relative="1" as="geometry" />
        </mxCell>
        <mxCell id="BBuvxylpBJwAQng4TnQ_-79" value="&lt;div&gt;redirect to &lt;br&gt;&lt;/div&gt;&lt;div&gt;principals list&lt;br&gt;&lt;/div&gt;" style="edgeLabel;html=1;align=center;verticalAlign=middle;resizable=0;points=[];" vertex="1" connectable="0" parent="BBuvxylpBJwAQng4TnQ_-78">
          <mxGeometry x="0.3258" relative="1" as="geometry">
            <mxPoint as="offset" />
          </mxGeometry>
        </mxCell>
        <mxCell id="BBuvxylpBJwAQng4TnQ_-81" style="edgeStyle=orthogonalEdgeStyle;rounded=0;orthogonalLoop=1;jettySize=auto;html=1;exitX=0.5;exitY=1;exitDx=0;exitDy=0;" edge="1" parent="1" source="BBuvxylpBJwAQng4TnQ_-74" target="BBuvxylpBJwAQng4TnQ_-80">
          <mxGeometry relative="1" as="geometry" />
        </mxCell>
        <mxCell id="BBuvxylpBJwAQng4TnQ_-74" value="Sees details about the principal and its school" style="html=1;whiteSpace=wrap;" vertex="1" parent="1">
          <mxGeometry x="-200" y="775" width="110" height="50" as="geometry" />
        </mxCell>
        <mxCell id="BBuvxylpBJwAQng4TnQ_-80" value="" style="ellipse;html=1;shape=endState;fillColor=#000000;strokeColor=#ff0000;" vertex="1" parent="1">
          <mxGeometry x="-160" y="860" width="30" height="30" as="geometry" />
        </mxCell>
      </root>
    </mxGraphModel>
  </diagram>
</mxfile>
